<?xml version="1.0" encoding="UTF-8"?><svg id="Layer_2" xmlns="http://www.w3.org/2000/svg" viewBox="0 0 57.95 57.95"><defs><style>.cls-1{fill:#a61916;fill-rule:evenodd;}</style></defs><g id="Calque_2"><g id="HATCH"><path class="cls-1" d="M8.49,25.46C3.05,20.03,0,12.66,0,4.97,0,2.23,2.23,0,4.97,0c7.68,0,15.05,3.05,20.49,8.49,4.69,4.69,4.69,12.29,0,16.97-4.69,4.69-12.29,4.69-16.97,0m24,24c5.43,5.43,12.8,8.49,20.49,8.49,2.75,0,4.97-2.23,4.97-4.97,0-7.68-3.05-15.05-8.49-20.49-4.69-4.69-12.29-4.69-16.97,0s-4.69,12.29,0,16.97m14.49-32.49c0-3.31-2.69-6-6-6s-6,2.69-6,6,2.69,6,6,6,6-2.69,6-6M9.08,46.35c-.35,1.04,.22,2.17,1.26,2.52,.41,.14,.85,.14,1.26,0,5.88-1.96,11.23-5.27,15.61-9.65,2.34-2.34,2.34-6.14,0-8.49-2.34-2.34-6.14-2.34-8.49,0-4.39,4.39-7.69,9.73-9.65,15.61Z"/></g></g></svg>